<svg width="512" height="512" viewBox="0 0 512 512" fill="none" xmlns="http://www.w3.org/2000/svg">
<path d="M464 103.928H456C451.576 103.928 448 107.504 448 111.928C448 116.352 451.576 119.928 456 119.928H464C468.416 119.928 472 123.512 472 127.928V223.928C472 228.352 475.576 231.928 480 231.928C484.424 231.928 488 228.352 488 223.928V127.928C488 114.696 477.232 103.928 464 103.928Z" fill="#AAB2BD"/>
<path d="M464 103.928C464 90.696 453.232 79.928 440 79.928C426.768 79.928 416 90.696 416 103.928V375.928H464V103.928Z" fill="#656D78"/>
<path d="M344 480.04V503.96H24V55.96H48H48.08V479.96L344 480.04Z" fill="#E6E9ED"/>
<path d="M72.0001 455.96L368.08 456.04V480.04H344L48.0801 479.96V55.96V32.04H72.0001V455.96Z" fill="#CCD1D9"/>
<path d="M392 55.96H344V8.04004L392 55.96Z" fill="#F5F7FA"/>
<path d="M392 55.96V456.04H368.08L72 455.96V32.04V8.04004H344V55.96H392Z" fill="#E6E9ED"/>
<path d="M440 415.928C435.576 415.928 432 412.352 432 407.928V399.928C432 395.504 435.576 391.928 440 391.928C444.424 391.928 448 395.504 448 399.928V407.928C448 412.352 444.424 415.928 440 415.928Z" fill="#5D9CEC"/>
<path d="M464 175.928H416V191.928H464V175.928Z" fill="#545C66"/>
<path d="M336 215.976H128C123.576 215.976 120 212.4 120 207.976C120 203.552 123.576 199.976 128 199.976H336C340.424 199.976 344 203.552 344 207.976C344 212.4 340.424 215.976 336 215.976ZM336 255.976H128C123.576 255.976 120 252.4 120 247.976C120 243.552 123.576 239.976 128 239.976H336C340.424 239.976 344 243.552 344 247.976C344 252.4 340.424 255.976 336 255.976ZM336 296.48H128C123.576 296.48 120 292.904 120 288.48C120 284.056 123.576 280.48 128 280.48H336C340.424 280.48 344 284.056 344 288.48C344 292.904 340.424 296.48 336 296.48ZM232 336.48H128C123.576 336.48 120 332.904 120 328.48C120 324.056 123.576 320.48 128 320.48H232C236.424 320.48 240 324.056 240 328.48C240 332.904 236.424 336.48 232 336.48ZM336 408.48H280C275.576 408.48 272 404.904 272 400.48C272 396.056 275.576 392.48 280 392.48H336C340.424 392.48 344 396.056 344 400.48C344 404.904 340.424 408.48 336 408.48Z" fill="#CCD1D9"/>
<path d="M296 423.976C291.576 423.976 288 420.4 288 415.976V383.976C288 379.552 291.576 375.976 296 375.976C300.424 375.976 304 379.552 304 383.976V415.976C304 420.4 300.424 423.976 296 423.976Z" fill="#5D9CEC"/>
<path d="M295.992 423.976C294.32 423.976 292.64 423.456 291.2 422.376C287.664 419.728 286.944 414.712 289.6 411.184L313.6 379.184C316.248 375.64 321.264 374.936 324.792 377.584C328.328 380.232 329.048 385.248 326.392 388.776L302.392 420.776C300.832 422.872 298.432 423.976 295.992 423.976Z" fill="#5D9CEC"/>
<path d="M320 423.976C315.576 423.976 312 420.4 312 415.976V383.976C312 379.552 315.576 375.976 320 375.976C324.424 375.976 328 379.552 328 383.976V415.976C328 420.4 324.424 423.976 320 423.976Z" fill="#5D9CEC"/>
<path d="M160 160.136C155.576 160.136 152 156.56 152 152.136V80.144C152 75.72 155.576 72.144 160 72.144C164.424 72.144 168 75.72 168 80.144V152.136C168 156.552 164.424 160.136 160 160.136Z" fill="#545C66"/>
<path d="M192 96.144H128C123.576 96.144 120 92.568 120 88.144C120 83.72 123.576 80.144 128 80.144H192C196.424 80.144 200 83.72 200 88.144C200 92.568 196.424 96.144 192 96.144ZM200 120.144H184C179.576 120.144 176 116.568 176 112.144C176 107.72 179.576 104.144 184 104.144H200C204.424 104.144 208 107.72 208 112.144C208 116.568 204.424 120.144 200 120.144ZM136 120.144H120C115.576 120.144 112 116.568 112 112.144C112 107.72 115.576 104.144 120 104.144H136C140.424 104.144 144 107.72 144 112.144C144 116.568 140.424 120.144 136 120.144ZM192 160.136H128C123.576 160.136 120 156.56 120 152.136C120 147.712 123.576 144.136 128 144.136H192C196.424 144.136 200 147.712 200 152.136C200 156.56 196.424 160.136 192 160.136Z" fill="#656D78"/>
<path d="M416 375.928C416 376.176 416.12 376.392 416.144 376.632C416.192 377.168 416.304 377.688 416.464 378.208C416.624 378.736 416.816 379.224 417.072 379.704C417.192 379.912 417.208 380.16 417.344 380.368L433.312 404.32C433.32 404.328 433.32 404.336 433.328 404.344L433.344 404.368C433.888 405.192 434.584 405.824 435.344 406.36C435.432 406.432 435.472 406.528 435.56 406.584C435.664 406.648 435.768 406.672 435.872 406.736C436.32 407 436.784 407.216 437.28 407.392C437.48 407.472 437.68 407.56 437.888 407.624C438.552 407.8 439.232 407.912 439.912 407.92C439.944 407.92 439.968 407.928 439.992 407.928H440H440.008C440.032 407.928 440.056 407.92 440.088 407.92C440.768 407.912 441.448 407.8 442.112 407.624C442.32 407.56 442.52 407.464 442.72 407.392C443.216 407.224 443.68 407 444.128 406.736C444.232 406.672 444.336 406.648 444.44 406.584C444.536 406.52 444.576 406.424 444.656 406.36C445.416 405.824 446.112 405.192 446.656 404.368L446.672 404.344C446.68 404.336 446.68 404.328 446.688 404.32L462.656 380.368C462.8 380.16 462.816 379.92 462.928 379.704C463.184 379.224 463.384 378.744 463.536 378.208C463.704 377.68 463.808 377.168 463.856 376.632C463.88 376.392 464 376.176 464 375.928H416Z" fill="#E6E9ED"/>
</svg>
