<svg width="512" height="512" viewBox="0 0 512 512" fill="none" xmlns="http://www.w3.org/2000/svg">
<path d="M255.96 4.05591C304.616 4.05591 343.952 43.4879 343.96 92.0639C343.96 140.72 304.624 180.056 255.952 180.056C207.376 180.056 167.96 140.72 167.96 92.0639C167.96 43.4799 207.376 4.05591 255.96 4.05591Z" fill="#ED5565"/>
<path d="M318.2 205.128C321.304 202.008 326.384 202 329.496 205.112L431.312 306.928C434.424 310.04 434.432 315.136 431.32 318.256L414.328 335.288C411.216 338.4 406.128 338.424 403.008 335.312L402.992 335.304C399.872 332.2 394.768 327.128 391.656 324.008L312.496 244.768C309.384 241.656 304.312 236.576 301.2 233.472C298.096 230.36 298.104 225.28 301.2 222.16L318.2 205.128ZM210.784 222.08C213.896 225.192 213.896 230.28 210.784 233.392L210.736 233.448C207.624 236.56 202.536 241.648 199.424 244.76L120.264 323.928C117.144 327.048 112.048 332.12 108.928 335.224L108.912 335.232C105.792 338.336 100.688 338.328 97.5681 335.224L80.6161 318.312C77.4961 315.2 74.9521 312.64 74.9521 312.624C74.9521 312.608 77.4961 310.04 80.6081 306.928L182.496 205.112C185.608 202 190.696 202 193.808 205.112L210.784 222.08Z" fill="#E6E9ED"/>
<path d="M179.64 383.256C187.472 391.088 187.472 403.736 179.64 411.576L173.96 417.264C166.2 425.024 153.472 425.024 145.72 417.264C137.888 409.424 137.888 396.776 145.72 388.944L148.528 386.064L151.336 383.256C159.16 375.496 171.8 375.496 179.64 383.256Z" fill="#EAC6BB"/>
<path d="M207.88 411.576C215.712 419.344 215.712 432.056 207.88 439.816L202.28 445.496C194.44 453.336 181.792 453.336 173.96 445.496C166.2 437.728 166.2 425.016 173.96 417.264L179.64 411.576C187.48 403.736 200.12 403.736 207.88 411.576ZM236.2 439.824C244.032 447.656 244.032 460.304 236.2 468.136L230.52 473.816C222.744 481.592 210.032 481.592 202.28 473.816C194.44 465.984 194.44 453.344 202.28 445.504L207.96 439.824C215.72 432.056 228.36 432.056 236.2 439.824Z" fill="#EAC6BB"/>
<path d="M264.512 468.136C272.28 475.984 272.28 488.624 264.52 496.384L261.64 499.264V499.344L258.84 502.064C251 509.904 238.352 509.904 230.52 502.056C222.744 494.296 222.744 481.584 230.52 473.816L236.2 468.136C244.04 460.296 256.68 460.296 264.512 468.136ZM306.84 239.104L397.312 329.656L369.08 380.464L295.64 306.944C289.312 300.712 279.24 300.712 273 306.952L236.2 343.752C228.424 351.512 215.712 351.512 207.96 343.752C200.12 335.92 200.128 323.272 207.96 315.432L210.76 312.632L256.04 267.432L261.648 261.752L306.84 239.104Z" fill="#EAC6BB"/>
<path d="M273 306.944C279.24 300.704 289.312 300.704 295.64 306.936L369.08 380.456L369.16 380.448L377.648 388.936C385.4 396.776 385.4 409.424 377.648 417.264C369.808 425.024 357.16 425.096 349.328 417.264C357.16 425.096 357.16 437.736 349.328 445.488C341.488 453.328 328.848 453.336 321.088 445.496C328.856 453.336 328.856 465.984 321.008 473.808C313.248 481.656 300.608 481.648 292.768 473.808C300.608 481.648 300.608 494.296 292.768 502.048C284.936 509.888 272.288 509.896 264.448 502.136L261.648 499.336V499.256L264.528 496.376C272.288 488.608 272.288 475.976 264.52 468.128C256.688 460.296 244.04 460.296 236.208 468.128C244.04 460.296 244.04 447.648 236.208 439.816C228.368 432.048 215.72 432.048 207.968 439.816L202.288 445.496L207.888 439.816C215.72 432.048 215.72 419.336 207.888 411.576C200.12 403.736 187.48 403.736 179.648 411.576C187.48 403.736 187.48 391.088 179.648 383.256C171.808 375.488 159.16 375.488 151.336 383.256L148.528 386.064L114.608 329.584L205.088 239.096L255.96 267.336L256.048 267.416L210.768 312.616L207.968 315.416C200.136 323.256 200.128 335.904 207.968 343.736C215.728 351.496 228.44 351.496 236.208 343.736L273 306.944Z" fill="#D3B1A9"/>
<path d="M256.128 132.072C251.704 132.072 248.128 128.496 248.128 124.072V52.0801C248.128 47.6561 251.704 44.0801 256.128 44.0801C260.552 44.0801 264.128 47.6561 264.128 52.0801V124.072C264.128 128.496 260.544 132.072 256.128 132.072Z" fill="#F6BB42"/>
<path d="M288.128 132.072L224.128 132.064C219.704 132.064 216.128 128.48 216.128 124.064C216.128 119.64 219.712 116.064 224.128 116.064L288.128 116.072C292.552 116.072 296.128 119.656 296.128 124.072C296.128 128.496 292.536 132.072 288.128 132.072ZM288.128 68.08L224.128 68.072C219.704 68.072 216.128 64.488 216.128 60.072C216.128 55.648 219.712 52.072 224.128 52.072L288.128 52.08C292.552 52.08 296.128 55.664 296.128 60.08C296.128 64.504 292.536 68.08 288.128 68.08ZM296.128 92.072H280.128C275.704 92.072 272.128 88.496 272.128 84.072C272.128 79.648 275.704 76.072 280.128 76.072H296.128C300.552 76.072 304.128 79.648 304.128 84.072C304.128 88.496 300.544 92.072 296.128 92.072ZM232.128 92.08H216.128C211.704 92.08 208.128 88.504 208.128 84.08C208.128 79.656 211.704 76.08 216.128 76.08H232.128C236.552 76.08 240.128 79.656 240.128 84.08C240.128 88.504 236.544 92.08 232.128 92.08Z" fill="#FFCE54"/>
<path d="M86.3276 323.928C83.2156 327.04 78.1276 327.04 75.0156 323.92L58.0156 306.92C54.9036 303.808 54.9036 298.72 58.0156 295.608L171.184 182.52C174.296 179.408 179.384 179.408 182.496 182.52L199.416 199.44C202.528 202.552 202.528 207.64 199.416 210.752L86.3276 323.928ZM453.984 295.608C457.096 298.72 457.096 303.808 453.984 306.92L436.976 323.928C433.864 327.04 428.776 327.04 425.664 323.92L312.568 210.76C309.456 207.648 309.456 202.56 312.568 199.448L329.496 182.52C332.608 179.408 337.696 179.408 340.808 182.52L453.984 295.608Z" fill="#656D78"/>
</svg>
