<svg width="512" height="512" viewBox="0 0 512 512" fill="none" xmlns="http://www.w3.org/2000/svg">
<path d="M124 304V448H52V408H12V48H124V160V208V256V304Z" fill="#E6E9ED"/>
<path d="M124 168H68C63.576 168 60 164.424 60 160C60 155.576 63.576 152 68 152H124C128.424 152 132 155.576 132 160C132 164.424 128.424 168 124 168ZM124 216H68C63.576 216 60 212.424 60 208C60 203.576 63.576 200 68 200H124C128.424 200 132 203.576 132 208C132 212.424 128.424 216 124 216ZM124 264H68C63.576 264 60 260.424 60 256C60 251.576 63.576 248 68 248H124C128.424 248 132 251.576 132 256C132 260.424 128.424 264 124 264ZM124 312H68C63.576 312 60 308.424 60 304C60 299.576 63.576 296 68 296H124C128.424 296 132 299.576 132 304C132 308.424 128.424 312 124 312Z" fill="#CCD1D9"/>
<path d="M52 408V448L12 408H52Z" fill="#F5F7FA"/>
<path d="M156 480H436V456H444C457.28 456 468 445.28 468 432V480C468 493.28 457.28 504 444 504H148C134.72 504 124 493.28 124 480C124 466.8 134.72 456 148 456H156V480Z" fill="#F6BB42"/>
<path d="M436 456H156V480H436V456Z" fill="#F5F7FA"/>
<path d="M500 48V152L468 184V48H500Z" fill="#F6BB42"/>
<path d="M444 8H148C134.72 8 124 18.72 124 32V48V160V208V256V304V448V480C124 466.8 134.72 456 148 456H156H436H444C457.28 456 468 445.28 468 432V184V48V32C468 18.72 457.28 8 444 8ZM228 224.16C214.72 224.16 204 213.44 204 200.16H252C252 213.44 241.2 224.16 228 224.16ZM371.92 224.16C358.64 224.16 347.92 213.44 347.92 200.16H395.92C395.92 213.44 385.2 224.16 371.92 224.16Z" fill="#FFCE54"/>
<path d="M251.96 208.16C248.608 208.16 245.488 206.04 244.376 202.688L220.376 130.672C218.976 126.48 221.24 121.952 225.432 120.544C229.648 119.136 234.16 121.416 235.552 125.608L259.552 197.624C260.952 201.816 258.688 206.344 254.496 207.752C253.648 208.032 252.8 208.16 251.96 208.16ZM299.96 296.176C295.536 296.176 291.96 292.6 291.96 288.176V104.144C291.96 99.72 295.536 96.144 299.96 96.144C304.384 96.144 307.96 99.72 307.96 104.144V288.184C307.96 292.6 304.384 296.176 299.96 296.176ZM347.944 208.16C347.112 208.16 346.256 208.032 345.416 207.752C341.232 206.344 338.96 201.824 340.36 197.624L364.36 125.608C365.76 121.424 370.24 119.136 374.48 120.544C378.664 121.952 380.936 126.472 379.536 130.672L355.536 202.688C354.416 206.04 351.296 208.16 347.944 208.16Z" fill="#545C66"/>
<path d="M395.944 208.16C392.592 208.16 389.472 206.04 388.36 202.688L364.36 130.672C362.96 126.48 365.224 121.952 369.416 120.544C373.632 119.136 378.136 121.416 379.536 125.608L403.536 197.624C404.936 201.816 402.672 206.344 398.48 207.752C397.632 208.032 396.784 208.16 395.944 208.16Z" fill="#545C66"/>
<path d="M363.96 296.176H235.96C231.536 296.176 227.96 292.6 227.96 288.176C227.96 283.752 231.536 280.176 235.96 280.176H363.96C368.384 280.176 371.96 283.752 371.96 288.176C371.96 292.6 368.384 296.176 363.96 296.176Z" fill="#656D78"/>
<path d="M395.992 352.152H203.928C199.504 352.152 195.928 348.576 195.928 344.152C195.928 339.728 199.504 336.152 203.928 336.152H395.992C400.416 336.152 403.992 339.728 403.992 344.152C403.992 348.576 400.416 352.152 395.992 352.152ZM347.992 376.144H251.944C247.52 376.144 243.944 372.568 243.944 368.144C243.944 363.72 247.52 360.144 251.944 360.144H347.992C352.416 360.144 355.992 363.72 355.992 368.144C355.992 372.568 352.416 376.144 347.992 376.144Z" fill="#F6BB42"/>
<path d="M203.96 208.16C203.128 208.16 202.272 208.032 201.432 207.752C197.248 206.344 194.976 201.824 196.376 197.624L220.376 125.608C221.776 121.424 226.264 119.136 230.496 120.544C234.68 121.952 236.952 126.472 235.552 130.672L211.552 202.688C210.432 206.04 207.312 208.16 203.96 208.16Z" fill="#545C66"/>
<path d="M251.96 192.16H203.96C199.536 192.16 195.96 195.736 195.96 200.16C195.96 217.8 210.312 232.16 227.96 232.16C245.608 232.16 259.96 217.8 259.96 200.16C259.96 195.736 256.384 192.16 251.96 192.16ZM395.944 192.16H347.944C343.52 192.16 339.944 195.736 339.944 200.16C339.944 217.8 354.296 232.16 371.944 232.16C389.592 232.16 403.944 217.8 403.944 200.16C403.944 195.736 400.368 192.16 395.944 192.16ZM371.944 136.144H227.96C223.536 136.144 219.96 132.568 219.96 128.144C219.96 123.72 223.536 120.144 227.96 120.144H371.944C376.368 120.144 379.944 123.72 379.944 128.144C379.944 132.568 376.368 136.144 371.944 136.144Z" fill="#656D78"/>
</svg>
