<svg width="512" height="512" viewBox="0 0 512 512" fill="none" xmlns="http://www.w3.org/2000/svg">
<path d="M318.792 81.24C253.192 15.56 146.872 15.56 81.1919 81.24C15.5919 146.84 15.5919 253.24 81.1919 318.76C95.1919 332.76 111.024 343.8 127.992 351.72L128.16 351.4V336.12C128.16 327.312 135.28 320.12 144.16 320.12H187.92V144.12H211.92V320.12H256.16C264.96 320.12 272.16 327.312 272.16 336.12V351.72C289.032 343.72 304.8 332.76 318.8 318.76C384.384 253.168 384.384 146.84 318.792 81.24Z" fill="#5D9CEC"/>
<path d="M272.152 336.128V351.728C226.632 373.32 173.512 373.408 127.984 351.728L128.152 351.408V336.128C128.152 327.32 135.272 320.128 144.152 320.128H187.912H211.912H256.152C264.944 320.128 272.152 327.32 272.152 336.128Z" fill="#656D78"/>
<path d="M211.904 144.128H187.904V320.128H211.904V144.128Z" fill="#CCD1D9"/>
<path d="M80.064 224.128H144.064C144.064 241.808 129.664 256.128 112.064 256.128C94.384 256.128 80.064 241.808 80.064 224.128Z" fill="#FFCE54"/>
<path d="M112.064 144.128L144.064 224.128H80.064L112.064 144.128Z" fill="#5D9CEC"/>
<path d="M211.904 116.144V136.144H187.904V116.144C187.904 109.504 193.264 104.144 199.904 104.144C206.544 104.144 211.904 109.504 211.904 116.144Z" fill="#CCD1D9"/>
<path d="M288.224 144.128L320.224 224.128H256.224L288.224 144.128Z" fill="#5D9CEC"/>
<path d="M356.792 401.96L368.064 390.68L390.704 368.04L401.984 356.768L494.624 449.408C507.112 461.888 507.112 482.128 494.624 494.6C482.144 507.16 461.904 507.16 449.424 494.6L356.792 401.96Z" fill="#656D78"/>
<path d="M390.704 368.04L368.064 390.68L323.984 346.6C328.064 343.16 331.984 339.56 335.744 335.8C339.584 331.96 343.192 328.032 346.552 323.96L390.704 368.04Z" fill="#CCD1D9"/>
<path d="M81.1839 81.24C15.5839 146.84 15.5839 253.24 81.1839 318.76C95.1839 332.76 111.016 343.8 127.984 351.72C173.504 373.4 226.624 373.312 272.152 351.72C289.024 343.72 304.792 332.76 318.792 318.76C384.384 253.16 384.384 146.84 318.792 81.24C253.184 15.56 146.864 15.56 81.1839 81.24ZM64.2239 64.2C139.264 -10.76 260.784 -10.76 335.736 64.2C406.936 135.4 410.616 248.52 346.544 323.96C343.184 328.04 339.584 331.96 335.736 335.8C331.976 339.56 328.056 343.16 323.976 346.6C248.616 410.6 135.496 407 64.2159 335.8C-10.7361 260.768 -10.7361 139.24 64.2239 64.2Z" fill="#E6E9ED"/>
<path d="M256.184 240.136C255.192 240.136 254.184 239.96 253.216 239.568C249.112 237.928 247.112 233.272 248.752 229.168L280.76 149.16C282.392 145.04 287.08 143.048 291.16 144.696C295.264 146.336 297.264 150.992 295.624 155.096L263.616 235.104C262.368 238.232 259.36 240.136 256.184 240.136Z" fill="#CCD1D9"/>
<path d="M320.184 240.136C317.016 240.136 314.008 238.24 312.752 235.104L280.76 155.096C279.12 150.992 281.12 146.336 285.224 144.696C289.288 143.048 293.984 145.04 295.624 149.16L327.616 229.168C329.256 233.272 327.256 237.928 323.152 239.568C322.184 239.952 321.176 240.136 320.184 240.136Z" fill="#CCD1D9"/>
<path d="M320.184 224.136H256.184C251.76 224.136 248.184 227.712 248.184 232.136C248.184 254.192 266.128 272.136 288.184 272.136C310.24 272.136 328.184 254.192 328.184 232.136C328.184 227.712 324.608 224.136 320.184 224.136Z" fill="#FFCE54"/>
<path d="M80.0161 240.136C79.0241 240.136 78.0161 239.96 77.0481 239.568C72.9441 237.928 70.9441 233.272 72.5841 229.168L104.592 149.16C106.224 145.04 110.912 143.048 114.992 144.696C119.096 146.336 121.096 150.992 119.456 155.096L87.4481 235.104C86.1921 238.232 83.1841 240.136 80.0161 240.136Z" fill="#CCD1D9"/>
<path d="M144.016 240.136C140.848 240.136 137.84 238.24 136.584 235.104L104.592 155.096C102.952 150.992 104.952 146.336 109.056 144.696C113.12 143.048 117.816 145.04 119.456 149.16L151.448 229.168C153.088 233.272 151.088 237.928 146.984 239.568C146.016 239.952 145.008 240.136 144.016 240.136Z" fill="#CCD1D9"/>
<path d="M144.016 224.136H80.0161C75.5921 224.136 72.0161 227.712 72.0161 232.136C72.0161 254.192 89.9601 272.136 112.016 272.136C134.072 272.136 152.016 254.192 152.016 232.136C152.016 227.712 148.44 224.136 144.016 224.136Z" fill="#FFCE54"/>
<path d="M187.904 152.136H112.064H108.552H107.992C101.432 152.136 95.9919 146.776 95.9919 140.136C95.9919 133.496 101.432 128.136 107.992 128.136H108.552H187.912H211.912H291.992C298.632 128.136 303.992 133.496 303.992 140.136C303.992 146.776 298.632 152.136 291.992 152.136H288.232H211.912H187.904Z" fill="#E6E9ED"/>
</svg>
